<svg width="50" height="50" viewBox="0 0 50 50" fill="none" xmlns="http://www.w3.org/2000/svg">
<g clip-path="url(#clip0_209_113)">
<mask id="path-1-inside-1_209_113" fill="white">
<path d="M0 0H50V50H0V0Z"/>
</mask>
<path d="M0 0H50V50H0V0Z" fill="#EEEEEE"/>
<rect width="50" height="50" fill="url(#paint0_radial_209_113)"/>
<rect width="50" height="50" fill="url(#paint1_radial_209_113)"/>
<path d="M25 21.4062C23 21.4062 21.4062 23.0312 21.4062 25C21.4062 27 23 28.5938 25 28.5938C26.9688 28.5938 28.5938 27 28.5938 25C28.5938 23.0312 26.9688 21.4062 25 21.4062ZM25 27.3438C23.7188 27.3438 22.6562 26.3125 22.6562 25C22.6562 23.7188 23.6875 22.6875 25 22.6875C26.2812 22.6875 27.3125 23.7188 27.3125 25C27.3125 26.3125 26.2812 27.3438 25 27.3438ZM29.5625 21.2812C29.5625 20.8125 29.1875 20.4375 28.7188 20.4375C28.25 20.4375 27.875 20.8125 27.875 21.2812C27.875 21.75 28.25 22.125 28.7188 22.125C29.1875 22.125 29.5625 21.75 29.5625 21.2812ZM31.9375 22.125C31.875 21 31.625 20 30.8125 19.1875C30 18.375 29 18.125 27.875 18.0625C26.7188 18 23.25 18 22.0938 18.0625C20.9688 18.125 20 18.375 19.1562 19.1875C18.3438 20 18.0938 21 18.0312 22.125C17.9688 23.2812 17.9688 26.75 18.0312 27.9062C18.0938 29.0312 18.3438 30 19.1562 30.8438C20 31.6562 20.9688 31.9062 22.0938 31.9688C23.25 32.0312 26.7188 32.0312 27.875 31.9688C29 31.9062 30 31.6562 30.8125 30.8438C31.625 30 31.875 29.0312 31.9375 27.9062C32 26.75 32 23.2812 31.9375 22.125ZM30.4375 29.125C30.2188 29.75 29.7188 30.2188 29.125 30.4688C28.1875 30.8438 26 30.75 25 30.75C23.9688 30.75 21.7812 30.8438 20.875 30.4688C20.25 30.2188 19.7812 29.75 19.5312 29.125C19.1562 28.2188 19.25 26.0312 19.25 25C19.25 24 19.1562 21.8125 19.5312 20.875C19.7812 20.2812 20.25 19.8125 20.875 19.5625C21.7812 19.1875 23.9688 19.2812 25 19.2812C26 19.2812 28.1875 19.1875 29.125 19.5625C29.7188 19.7812 30.1875 20.2812 30.4375 20.875C30.8125 21.8125 30.7188 24 30.7188 25C30.7188 26.0312 30.8125 28.2188 30.4375 29.125Z" fill="white"/>
</g>
<path d="M0 0H50H0ZM50 50H0H50ZM0 50V0V50ZM51 0V50H49V0H51Z" fill="#ECF0F1" mask="url(#path-1-inside-1_209_113)"/>
<defs>
<radialGradient id="paint0_radial_209_113" cx="0" cy="0" r="1" gradientUnits="userSpaceOnUse" gradientTransform="translate(42.25 56.75) rotate(-115.776) scale(68.1842 101.416)">
<stop offset="0.24392" stop-color="#FF1B90"/>
<stop offset="0.436673" stop-color="#F80261"/>
<stop offset="0.688476" stop-color="#ED00C0"/>
<stop offset="0.776787" stop-color="#C500E9"/>
<stop offset="0.893155" stop-color="#7017FF"/>
</radialGradient>
<radialGradient id="paint1_radial_209_113" cx="0" cy="0" r="1" gradientUnits="userSpaceOnUse" gradientTransform="translate(18.125 48.275) rotate(-57.4396) scale(29.5435 30.7295)">
<stop stop-color="#FFD600"/>
<stop offset="0.484375" stop-color="#FF6930"/>
<stop offset="0.734375" stop-color="#FE3B36"/>
<stop offset="1" stop-color="#FE3B36" stop-opacity="0"/>
</radialGradient>
<clipPath id="clip0_209_113">
<path d="M0 0H50V50H0V0Z" fill="white"/>
</clipPath>
</defs>
</svg>
