<svg width="50" height="50" viewBox="0 0 50 50" fill="none" xmlns="http://www.w3.org/2000/svg">
<mask id="path-1-inside-1_209_117" fill="white">
<path d="M0 0H50V50H0V0Z"/>
</mask>
<path d="M0 0H50V50H0V0Z" fill="white"/>
<path d="M0 0H50H0ZM50 50H0H50ZM0 50V0V50ZM51 0V50H49V0H51Z" fill="#ECF0F1" mask="url(#path-1-inside-1_209_117)"/>
<path d="M33.1562 20.9062C32.9688 20.1562 32.375 19.5625 31.6562 19.375C30.3125 19 25 19 25 19C25 19 19.6562 19 18.3125 19.375C17.5938 19.5625 17 20.1562 16.8125 20.9062C16.4375 22.2188 16.4375 25.0312 16.4375 25.0312C16.4375 25.0312 16.4375 27.8125 16.8125 29.1562C17 29.9062 17.5938 30.4688 18.3125 30.6562C19.6562 31 25 31 25 31C25 31 30.3125 31 31.6562 30.6562C32.375 30.4688 32.9688 29.9062 33.1562 29.1562C33.5312 27.8125 33.5312 25.0312 33.5312 25.0312C33.5312 25.0312 33.5312 22.2188 33.1562 20.9062ZM23.25 27.5625V22.5L27.6875 25.0312L23.25 27.5625Z" fill="#FF0000"/>
</svg>
